<?xml version="1.0" encoding="UTF-8"?>
<svg width="100%" height="100%" viewBox="0 0 800 800" preserveAspectRatio="xMidYMid meet" fill="none" xmlns="http://www.w3.org/2000/svg">
  <style>
    .line {
      stroke: white;
      stroke-width: 2;
      stroke-linecap: round;
      stroke-linejoin: round;
      fill: none;
    }
  </style>
  <path class="line" d="M400 200 C450 200, 500 250, 500 300 C500 350, 450 400, 400 400 C350 400, 300 350, 300 300 C300 250, 350 200, 400 200 Z" />
  <path class="line" d="M400 250 L400 550" />
  <path class="line" d="M350 500 C350 550, 400 600, 450 600 C500 600, 550 550, 550 500" />
  <path class="line" d="M250 300 C200 300, 150 350, 150 400 C150 450, 200 500, 250 500" />
  <path class="line" d="M550 300 C600 300, 650 350, 650 400 C650 450, 600 500, 550 500" />
</svg> 